<svg width="21" height="21" viewBox="0 0 21 21" fill="none" xmlns="http://www.w3.org/2000/svg">
<path fill-rule="evenodd" clip-rule="evenodd" d="M10.5 0C4.69875 0 0 4.69875 0 10.5C0 15.1462 3.00563 19.0706 7.17937 20.4619C7.70437 20.5538 7.90125 20.2388 7.90125 19.9631C7.90125 19.7138 7.88813 18.8869 7.88813 18.0075C5.25 18.4931 4.5675 17.3644 4.3575 16.7738C4.23938 16.4719 3.7275 15.54 3.28125 15.2906C2.91375 15.0938 2.38875 14.6081 3.26812 14.595C4.095 14.5819 4.68563 15.3562 4.8825 15.6712C5.8275 17.2594 7.33687 16.8131 7.94062 16.5375C8.0325 15.855 8.30813 15.3956 8.61 15.1331C6.27375 14.8706 3.8325 13.965 3.8325 9.94875C3.8325 8.80688 4.23938 7.86188 4.90875 7.12688C4.80375 6.86438 4.43625 5.78813 5.01375 4.34438C5.01375 4.34438 5.89312 4.06875 7.90125 5.42063C8.74125 5.18438 9.63375 5.06625 10.5262 5.06625C11.4187 5.06625 12.3112 5.18438 13.1512 5.42063C15.1594 4.05562 16.0387 4.34438 16.0387 4.34438C16.6162 5.78813 16.2488 6.86438 16.1438 7.12688C16.8131 7.86188 17.22 8.79375 17.22 9.94875C17.22 13.9781 14.7656 14.8706 12.4294 15.1331C12.81 15.4613 13.1381 16.0912 13.1381 17.0756C13.1381 18.48 13.125 19.6088 13.125 19.9631C13.125 20.2388 13.3219 20.5669 13.8469 20.4619C15.9313 19.7581 17.7425 18.4185 19.0257 16.6314C20.3089 14.8444 20.9994 12.7 21 10.5C21 4.69875 16.3013 0 10.5 0Z" fill="#ffffff"/>
</svg>
