<svg width="21" height="15" viewBox="0 0 21 15" fill="none" xmlns="http://www.w3.org/2000/svg">
<g clip-path="url(#clip0)">
<path d="M4.77274 14.9261V7.23881L2.25643 5.05775L0 3.84741V13.5695C0 14.3201 0.641894 14.9261 1.43186 14.9261H4.77274Z" fill="#4285F4"/>
<path d="M16.2271 14.9262H19.5679C20.3603 14.9262 20.9998 14.3179 20.9998 13.5696V3.84753L18.444 5.23383L16.2271 7.23886V14.9262Z" fill="#34A853"/>
<path d="M4.77257 7.23886L4.43018 4.2352L4.77257 1.36041L10.4998 5.43015L16.2271 1.36041L16.6102 4.08L16.2271 7.23886L10.4998 11.3086L4.77257 7.23886Z" fill="#EA4335"/>
<path d="M16.2271 1.36045V7.2389L20.9998 3.8475V2.03872C20.9998 0.361125 18.9785 -0.595222 17.5635 0.410866L16.2271 1.36045Z" fill="#FBBC04"/>
<path d="M0 3.84735L2.19507 5.4072L4.77274 7.23875V1.3603L3.43629 0.410719C2.01879 -0.595447 0 0.360978 0 2.03849V3.84727V3.84735Z" fill="#C5221F"/>
</g>
<defs>
<clipPath id="clip0">
<rect width="21" height="15" fill="white"/>
</clipPath>
</defs>
</svg>
