<svg width="21" height="21" viewBox="0 0 21 21" fill="none" xmlns="http://www.w3.org/2000/svg">
<g clip-path="url(#clip0)">
<path d="M17.892 17.8927H14.7805V13.0198C14.7805 11.8578 14.7597 10.362 13.1622 10.362C11.5416 10.362 11.2936 11.628 11.2936 12.9352V17.8923H8.18213V7.87173H11.1691V9.24116H11.211C11.5099 8.73003 11.9419 8.30954 12.4609 8.02449C12.9799 7.73943 13.5665 7.60049 14.1582 7.62244C17.3119 7.62244 17.8933 9.69685 17.8933 12.3955L17.892 17.8927ZM4.6712 6.50206C3.67394 6.50222 2.86536 5.69389 2.8652 4.69663C2.86503 3.69938 3.67329 2.8908 4.67054 2.89063C5.66779 2.89039 6.47638 3.69872 6.47654 4.69598C6.47663 5.17488 6.28647 5.6342 5.94791 5.9729C5.60934 6.31161 5.1501 6.50195 4.6712 6.50206ZM6.227 17.8928H3.11219V7.87173H6.22692V17.8927L6.227 17.8928ZM19.4432 0.000918046H1.54868C0.702934 -0.00859758 0.00935938 0.668898 -0.000976562 1.51464V19.4838C0.00903125 20.33 0.702524 21.0081 1.54859 20.9993H19.4432C20.2911 21.0098 20.9873 20.3316 20.999 19.4838V1.51325C20.987 0.665863 20.2907 -0.0115507 19.4432 -0.000476485" fill="#0A66C2"/>
</g>
<defs>
<clipPath id="clip0">
<rect width="21" height="21" fill="white"/>
</clipPath>
</defs>
</svg>
